<svg width="960" height="260" viewBox="0 0 960 260" fill="none" xmlns="http://www.w3.org/2000/svg">
  <rect width="960" height="260" rx="44" fill="#F7F9FC"/>
  <rect x="32" y="32" width="196" height="196" rx="44" fill="#102A43"/>
  <circle cx="130" cy="130" r="72" fill="#CCFBF1"/>
  <path d="M130 56L184 80V123C184 158 162 188 130 204C98 188 76 158 76 123V80L130 56Z" fill="#4F46E5"/>
  <path d="M130 68L173 87V123C173 151 156 176 130 189C104 176 87 151 87 123V87L130 68Z" fill="#0F766E"/>
  <path d="M91 106C105 101 118 102 130 111C142 102 155 101 169 106V157C155 152 142 153 130 162C118 153 105 152 91 157V106Z" fill="#FFFFFF"/>
  <path d="M130 111V162" stroke="#D9E2EC" stroke-width="4" stroke-linecap="round"/>
  <path d="M108 160L124 176L153 142" stroke="#F59E0B" stroke-width="13" stroke-linecap="round" stroke-linejoin="round"/>
  <text x="270" y="116" fill="#102A43" font-family="Segoe UI, Arial, sans-serif" font-size="46" font-weight="800">School Marksheet</text>
  <text x="272" y="162" fill="#64748B" font-family="Segoe UI, Arial, sans-serif" font-size="22" font-weight="600">Result management and PDF marksheet system</text>
  <rect x="272" y="190" width="118" height="10" rx="5" fill="#0F766E"/>
  <rect x="406" y="190" width="118" height="10" rx="5" fill="#4F46E5"/>
  <rect x="540" y="190" width="118" height="10" rx="5" fill="#F59E0B"/>
  <rect x="674" y="190" width="118" height="10" rx="5" fill="#E11D48"/>
</svg>
